<?xml version="1.0" ?>
<!DOCTYPE svg  PUBLIC '-//W3C//DTD SVG 1.1//EN'  'http://www.w3.org/Graphics/SVG/1.1/DTD/svg11.dtd'>
<!-- Uploaded to: SVG Repo, www.svgrepo.com, Generator: SVG Repo Mixer Tools -->
<svg fill="#000000" width="800px" height="800px" viewBox="0 0 48 48" style="fill-rule:evenodd;clip-rule:evenodd;stroke-linejoin:round;stroke-miterlimit:1.41421;" version="1.1" xml:space="preserve" xmlns="http://www.w3.org/2000/svg" xmlns:serif="http://www.serif.com/" xmlns:xlink="http://www.w3.org/1999/xlink">
<g id="global_options_list">
<g id="window">
<path d="M3.745,35.198L3.745,12.269C3.745,10.599 5.101,9.244 6.771,9.244L41.42,9.244C43.088,9.244 44.448,10.597 44.448,12.269L44.448,35.198C44.448,36.869 43.091,38.224 41.42,38.224L6.771,38.224C5.101,38.224 3.745,36.869 3.745,35.198ZM23.043,36.31L23.043,11.159L6.771,11.159C6.158,11.159 5.661,11.657 5.661,12.269L5.661,35.198C5.661,35.812 6.158,36.31 6.771,36.31L23.043,36.31ZM30.453,30.262C30.453,29.971 30.213,29.729 29.921,29.729L26.629,29.729C26.336,29.729 26.097,29.971 26.097,30.262C26.097,30.556 26.336,30.794 26.629,30.794L29.921,30.794C30.213,30.794 30.453,30.556 30.453,30.262ZM38.829,30.262C38.829,29.971 38.588,29.729 38.296,29.729L35.005,29.729C34.711,29.729 34.472,29.971 34.472,30.262C34.472,30.556 34.711,30.794 35.005,30.794L38.296,30.794C38.588,30.794 38.829,30.556 38.829,30.262ZM31.815,28.334C31.815,28.043 31.575,27.802 31.282,27.802L26.614,27.802C26.32,27.802 26.082,28.043 26.082,28.334C26.082,28.627 26.32,28.866 26.614,28.866L31.282,28.866C31.575,28.866 31.815,28.627 31.815,28.334ZM40.19,28.334C40.19,28.043 39.95,27.802 39.658,27.802L34.989,27.802C34.696,27.802 34.458,28.043 34.458,28.334C34.458,28.627 34.696,28.866 34.989,28.866L39.658,28.866C39.95,28.866 40.19,28.627 40.19,28.334ZM30.453,24.602C30.453,24.31 30.213,24.069 29.921,24.069L26.629,24.069C26.336,24.069 26.097,24.31 26.097,24.602C26.097,24.895 26.336,25.134 26.629,25.134L29.921,25.134C30.213,25.134 30.453,24.895 30.453,24.602ZM38.829,24.602C38.829,24.31 38.588,24.069 38.296,24.069L35.005,24.069C34.711,24.069 34.472,24.31 34.472,24.602C34.472,24.895 34.711,25.134 35.005,25.134L38.296,25.134C38.588,25.134 38.829,24.895 38.829,24.602ZM31.815,22.674C31.815,22.382 31.575,22.141 31.282,22.141L26.614,22.141C26.32,22.141 26.082,22.382 26.082,22.674C26.082,22.967 26.32,23.205 26.614,23.205L31.282,23.205C31.575,23.205 31.815,22.967 31.815,22.674ZM40.19,22.674C40.19,22.382 39.95,22.141 39.658,22.141L34.989,22.141C34.696,22.141 34.458,22.382 34.458,22.674C34.458,22.967 34.696,23.205 34.989,23.205L39.658,23.205C39.95,23.205 40.19,22.967 40.19,22.674ZM30.455,18.61C30.455,18.317 30.215,18.077 29.923,18.077L26.631,18.077C26.338,18.077 26.1,18.317 26.1,18.61C26.1,18.903 26.338,19.141 26.631,19.141L29.923,19.141C30.215,19.141 30.455,18.903 30.455,18.61ZM38.831,18.61C38.831,18.317 38.59,18.077 38.298,18.077L35.007,18.077C34.714,18.077 34.474,18.317 34.474,18.61C34.474,18.903 34.714,19.141 35.007,19.141L38.298,19.141C38.59,19.141 38.831,18.903 38.831,18.61ZM31.817,16.681C31.817,16.39 31.577,16.149 31.285,16.149L26.617,16.149C26.323,16.149 26.084,16.39 26.084,16.681C26.084,16.975 26.323,17.213 26.617,17.213L31.285,17.213C31.577,17.213 31.817,16.975 31.817,16.681ZM40.193,16.681C40.193,16.39 39.952,16.149 39.66,16.149L34.991,16.149C34.698,16.149 34.46,16.39 34.46,16.681C34.46,16.975 34.698,17.213 34.991,17.213L39.66,17.213C39.952,17.213 40.193,16.975 40.193,16.681Z" id="window1"/>
<path d="M7.107,13.083C7.107,12.577 7.52,12.164 8.026,12.164C8.533,12.164 8.944,12.577 8.944,13.083C8.944,13.588 8.533,14 8.026,14C7.52,14 7.107,13.588 7.107,13.083ZM9.707,13.083C9.707,12.577 10.119,12.164 10.625,12.164C11.131,12.164 11.544,12.577 11.544,13.083C11.544,13.588 11.131,14 10.625,14C10.119,14 9.707,13.588 9.707,13.083ZM12.306,13.083C12.306,12.577 12.718,12.164 13.223,12.164C13.729,12.164 14.142,12.577 14.142,13.083C14.142,13.588 13.729,14 13.223,14C12.718,14 12.306,13.588 12.306,13.083Z" id="window-actions"/>
</g>
<path d="M14,31.288C13.919,31.288 13.838,31.284 13.732,31.278C13.642,31.272 13.527,31.262 13.412,31.247C13.246,31.232 13.106,31.211 12.972,31.179C12.895,31.173 12.835,31.159 12.776,31.147C12.576,31.106 12.421,31.066 12.267,31.013C12.227,31.005 12.191,30.993 12.154,30.983C11.938,30.915 11.768,30.851 11.602,30.777C11.584,30.771 11.569,30.767 11.557,30.759C10.942,30.492 10.41,30.158 9.933,29.758C9.772,29.621 9.612,29.475 9.463,29.319C9.452,29.311 9.444,29.3 9.433,29.288C8.303,28.115 7.608,26.514 7.608,24.752C7.608,22.992 8.303,21.394 9.433,20.222C9.444,20.21 9.452,20.2 9.463,20.19C9.473,20.18 9.487,20.167 9.501,20.154C9.569,20.083 9.625,20.03 9.686,19.984C9.786,19.88 9.873,19.802 9.963,19.73C10.037,19.667 10.105,19.613 10.18,19.566C10.283,19.478 10.373,19.412 10.47,19.35C10.542,19.299 10.605,19.256 10.675,19.22C10.797,19.137 10.903,19.073 11.014,19.016C11.065,18.986 11.112,18.963 11.163,18.941C11.317,18.856 11.455,18.792 11.598,18.733C11.604,18.731 11.608,18.729 11.614,18.727C12.414,18.392 13.259,18.214 14.144,18.214C15.47,18.214 16.706,18.612 17.779,19.326C17.785,19.328 17.789,19.332 17.796,19.337C17.933,19.426 18.066,19.525 18.226,19.658C18.253,19.675 18.279,19.697 18.306,19.72C18.419,19.81 18.528,19.907 18.655,20.04C18.696,20.069 18.731,20.103 18.774,20.15C18.792,20.163 18.807,20.177 18.821,20.19C18.83,20.2 18.84,20.212 18.852,20.227C19.979,21.398 20.678,22.994 20.678,24.752C20.678,26.514 19.979,28.115 18.848,29.288C18.836,29.3 18.828,29.311 18.819,29.319C18.43,29.719 17.99,30.068 17.492,30.359C17.441,30.398 17.383,30.432 17.324,30.464C17.228,30.519 17.132,30.57 17.018,30.617C16.934,30.666 16.849,30.706 16.751,30.747C16.663,30.788 16.575,30.824 16.466,30.858C16.362,30.905 16.253,30.943 16.151,30.975C15.904,31.056 15.649,31.122 15.842,31.068C15.451,31.159 15.51,31.147 15.525,31.143C15.543,31.141 15.557,31.136 15.211,31.204C15.368,31.179 15.157,31.215 14.881,31.247C14.934,31.243 14.987,31.237 14.521,31.278C14.792,31.264 14.536,31.284 14.281,31.288C14.228,31.292 14.185,31.292 14.142,31.292C14.097,31.292 14.055,31.292 14,31.288ZM14.212,30.221C14.499,30.17 14.932,29.783 15.315,28.812C14.938,28.781 14.546,28.763 14.144,28.763C13.738,28.763 13.344,28.781 12.966,28.812C13.35,29.787 13.781,30.168 14.066,30.221C14.082,30.226 14.097,30.226 14.115,30.223L14.172,30.223C14.185,30.226 14.199,30.226 14.212,30.221ZM16.136,29.836C16.331,29.772 16.517,29.688 16.683,29.594C16.776,29.555 16.864,29.506 16.868,29.485C17.049,29.391 17.219,29.278 17.383,29.159L17.377,29.157L17.17,29.102C16.926,29.044 16.668,28.991 16.4,28.947C16.368,29.032 16.339,29.115 16.306,29.196C16.206,29.448 16.097,29.686 15.976,29.9C16.07,29.879 16.157,29.846 16.136,29.836ZM11.976,29.196C11.942,29.115 11.912,29.032 11.881,28.947C11.612,28.991 11.354,29.044 11.112,29.102L10.901,29.157L10.897,29.159C11.05,29.272 11.21,29.378 11.382,29.468C11.408,29.5 11.506,29.555 11.61,29.6C11.748,29.678 11.914,29.758 12.089,29.815C12.15,29.856 12.22,29.883 12.297,29.898C12.18,29.683 12.072,29.446 11.976,29.196ZM11.584,27.917C11.399,27.125 11.284,26.231 11.255,25.282L8.695,25.282C8.808,26.44 9.278,27.491 9.994,28.324C10.474,28.157 11.007,28.021 11.584,27.917ZM19.588,25.282L17.028,25.282C16.998,26.229 16.881,27.125 16.698,27.917C17.275,28.019 17.808,28.157 18.286,28.324C19.002,27.491 19.475,26.44 19.588,25.282ZM14.144,27.7C14.657,27.7 15.157,27.725 15.638,27.772C15.814,27.044 15.931,26.2 15.964,25.282L12.318,25.282C12.351,26.2 12.468,27.044 12.642,27.772C13.125,27.725 13.627,27.7 14.144,27.7ZM11.584,21.593C11.007,21.49 10.472,21.355 9.994,21.188C9.278,22.018 8.808,23.068 8.697,24.219L11.255,24.219C11.286,23.275 11.401,22.384 11.584,21.593ZM15.636,21.737C15.155,21.784 14.655,21.808 14.144,21.808C13.629,21.808 13.127,21.784 12.644,21.737C12.468,22.463 12.353,23.306 12.318,24.219L15.964,24.219C15.929,23.306 15.812,22.463 15.636,21.737ZM18.288,21.188C17.808,21.355 17.272,21.49 16.696,21.595C16.881,22.384 16.996,23.275 17.028,24.219L19.586,24.219C19.475,23.068 19.002,22.02 18.288,21.188ZM15.311,20.699C14.895,19.646 14.425,19.285 14.142,19.285C13.849,19.285 13.381,19.656 12.97,20.699C13.346,20.729 13.74,20.744 14.144,20.744C14.544,20.744 14.936,20.729 15.311,20.699ZM17.17,20.409L17.387,20.354C17.221,20.231 17.047,20.118 16.872,20.028C16.792,19.964 16.702,19.915 16.679,19.913C16.491,19.812 16.296,19.722 16.099,19.656C16.027,19.613 15.949,19.584 15.97,19.605C16.093,19.826 16.204,20.067 16.306,20.319C16.337,20.401 16.368,20.483 16.398,20.567C16.668,20.522 16.926,20.469 17.17,20.409ZM11.976,20.319C12.074,20.067 12.185,19.826 12.306,19.607C12.308,19.595 12.218,19.626 12.136,19.675C11.961,19.73 11.782,19.814 11.612,19.909C11.569,19.919 11.469,19.975 11.38,20.044C11.214,20.128 11.05,20.237 10.893,20.354L11.112,20.409C11.354,20.469 11.614,20.522 11.883,20.567C11.912,20.483 11.944,20.401 11.976,20.319Z" id="global"/>
</g>
</svg>